<?xml version="1.0" encoding="UTF-8"?>
<svg xmlns="http://www.w3.org/2000/svg" viewBox="0 0 517 153.3">
  <g fill="whitesmoke">
    <path d="M44.6,152.9c-8.7,0-16.4-1.7-23.2-5.1-6.7-3.4-12-8-15.8-13.9-3.8-5.9-5.7-12.7-5.7-20.4s1-10.2,2.9-14.7c2-4.5,4.7-8.7,8.2-12.5,3.5-3.9,7.4-7.3,11.8-10.2l27.8-19.2c2.2-1.5,4.7-3.3,7.3-5.3,2.6-2,4.9-4.3,7-7.1,2-2.7,3.1-5.9,3.1-9.4s-1.5-7.3-4.4-9.6c-2.9-2.3-6.7-3.5-11.2-3.5s-7.8,1.2-10.6,3.6c-2.9,2.4-4.3,5.5-4.3,9.3s1.1,6.8,3.4,9.6c2.2,2.7,4.8,5.9,7.8,9.6l28,33.7,51.6,62.3h-32.4l-39.2-46.8-29.5-35.8c-3.8-4.9-6.9-9.2-9.4-13-2.5-3.7-4.2-7.2-5.4-10.3-1.1-3.2-1.7-6.4-1.7-9.6,0-6.7,1.8-12.7,5.4-17.9,3.6-5.2,8.4-9.3,14.5-12.3C36.8,1.5,43.6,0,51.2,0s15.7,1.5,22.1,4.5c6.5,3,11.5,7.2,15.3,12.5,3.7,5.3,5.6,11.6,5.6,18.7s-1.5,11.1-4.4,15.9c-2.9,4.8-7.3,9.7-13,14.6-5.7,4.9-12.6,10.2-20.7,15.8l-15,10.3c-2.2,1.5-4.3,3.3-6.2,5.3-1.9,2-3.4,4.2-4.5,6.6-1.1,2.5-1.7,5.3-1.7,8.5,0,4.8,1.6,8.7,4.9,11.8,3.3,3.1,7.5,4.6,12.7,4.6s11.7-.9,17.5-2.7c5.8-1.8,11-4.6,15.7-8.2,4.7-3.7,8.4-8.1,11.1-13.5,2.7-5.3,4-11.4,4-18.3h25.9c0,12.9-3.2,24.4-9.7,34.4-6.5,10-15.4,17.9-26.7,23.5-11.4,5.6-24.5,8.4-39.4,8.4Z"/>
    <path d="M134.2,150.2V44.9h27.8v105.3h-27.8ZM153.7,94.8c0-11.4,2.2-20.8,6.6-28.2,4.4-7.4,10.1-13,17.1-16.6,7-3.6,14.2-5.5,21.8-5.5v27c-6.5,0-12.5.8-18.2,2.3-5.7,1.5-10.3,4.1-13.8,7.6s-5.3,8-5.3,13.5h-8.2Z"/>
    <path d="M256.3,152.7c-10.4,0-19.6-2.4-27.6-7.1-8-4.7-14.3-11.2-18.8-19.5-4.6-8.3-6.8-17.8-6.8-28.6s2.3-20.4,7.1-28.6c4.7-8.3,11.2-14.8,19.4-19.5,8.2-4.7,17.7-7.1,28.3-7.1s17.8,2.4,25.6,7.3c7.8,4.8,14,11.9,18.7,21.3,4.7,9.3,7.1,20.7,7.1,34h-79.8l2.5-2.5c0,5.2,1.3,9.7,3.9,13.6,2.6,3.9,6,6.8,10.1,8.8,4.1,2,8.6,3.1,13.4,3.1s10.5-1.2,14.1-3.7c3.6-2.5,6.5-5.7,8.4-9.6l24.9,9.7c-2.9,5.9-6.8,11-11.5,15.3-4.7,4.3-10.3,7.5-16.7,9.8-6.5,2.2-13.8,3.4-22.1,3.4ZM233.4,86.8l-2.5-2.5h50.8l-2.3,2.5c0-5.1-1.2-9.1-3.6-12.1-2.4-3-5.3-5.2-8.7-6.6-3.4-1.4-6.8-2.1-10-2.1s-6.7.7-10.3,2.1c-3.7,1.4-6.8,3.6-9.4,6.6-2.6,3-3.9,7.1-3.9,12.1Z"/>
    <path d="M341.4,150.2l-35.8-105.3h28.2l33.5,105.3h-25.9ZM344.1,150.2l33.7-105.3h24.2l-33.3,105.3h-24.6ZM414.1,150.2l-32.9-105.3h24l33.5,105.3h-24.6ZM414.1,150.2l35-105.3h28.2l-35.8,105.3h-27.4Z"/>
    <path d="M500.2,153.3c-4.6,0-8.6-1.7-11.9-5.1-3.3-3.4-4.9-7.4-4.9-12s1.6-8.4,4.9-11.8c3.3-3.4,7.3-5.1,11.9-5.1s8.6,1.7,11.9,5.1c3.3,3.4,4.9,7.3,4.9,11.8s-1.7,8.6-4.9,12c-3.3,3.4-7.3,5.1-11.9,5.1Z"/>
  </g>
</svg>